<svg width="128" height="56" viewBox="0 0 128 56" fill="none" xmlns="http://www.w3.org/2000/svg">
<path d="M30.1977 18.659C29.0662 17.5584 27.7587 16.5608 26.2932 15.6839C24.2633 14.4703 21.6663 13.8531 18.5748 13.8531C16.1488 13.8531 13.7926 14.3108 11.5711 15.2134C9.34179 16.1185 7.3507 17.4839 5.6522 19.2709C3.96146 21.0503 2.58142 23.2539 1.55351 25.8227C0.523016 28.3915 0 31.3819 0 34.7066V34.8532C0 38.1805 0.523016 41.1684 1.55092 43.7372C2.57883 46.3085 3.97181 48.5147 5.68845 50.2915C7.40767 52.076 9.4117 53.4388 11.641 54.3465C13.8625 55.249 16.1954 55.7067 18.5722 55.7067C21.6171 55.7067 24.1908 55.0767 26.2233 53.8374C27.6991 52.9348 29.03 51.8369 30.1951 50.5589V54.9765H42.6569V0.428223H30.1951V18.659H30.1977ZM29.6151 30.4922C30.0993 31.7599 30.3453 33.1767 30.3453 34.7092V34.8558C30.3453 36.3883 30.0993 37.8051 29.6151 39.0728C29.131 40.3379 28.4811 41.4333 27.681 42.3255C26.8887 43.2075 25.9488 43.8966 24.8873 44.3697C23.8257 44.8428 22.6683 45.0845 21.4437 45.0845C20.219 45.0845 19.059 44.8454 17.9974 44.3697C16.9307 43.894 15.9779 43.2023 15.1597 42.3178C14.3389 41.4281 13.6761 40.3353 13.1945 39.0728C12.7103 37.8051 12.4644 36.3883 12.4644 34.8558V34.7092C12.4644 33.133 12.7103 31.7033 13.1919 30.4588C13.6735 29.2194 14.3363 28.1369 15.1597 27.2446C15.9779 26.3575 16.9307 25.6684 17.9974 25.1927C19.059 24.717 20.219 24.4779 21.4411 24.4779C22.6632 24.4779 23.8231 24.7196 24.8847 25.1927C25.9488 25.6684 26.8887 26.355 27.6784 27.2369C28.4811 28.1318 29.131 29.2246 29.6151 30.4897V30.4922Z" fill="white"/>
<path d="M71.7687 13.8557C70.2903 13.8557 68.9413 14.0382 67.7581 14.3982C66.5774 14.7582 65.4874 15.2519 64.5138 15.8665C63.5455 16.4784 62.6548 17.1881 61.8677 17.9749C61.5285 18.3144 61.1997 18.6641 60.8812 19.0215V14.5834H48.4194V54.979H60.8812V32.5724C60.8812 30.1322 61.4534 28.2834 62.5823 27.0775C63.7138 25.8689 65.231 25.2801 67.2144 25.2801C69.1977 25.2801 70.6657 25.8638 71.7247 27.062C72.7889 28.268 73.3274 30.1219 73.3274 32.5698V54.9764H85.7892V29.0137C85.7892 24.3493 84.5593 20.6208 82.1333 17.9312C79.6891 15.2236 76.2014 13.8505 71.7687 13.8505V13.8557Z" fill="white"/>
<path d="M120.063 40.6L119.603 41.0243C118.277 42.2483 116.923 43.2357 115.582 43.9582C114.29 44.6576 112.749 45.0099 111.004 45.0099C109.585 45.0099 108.29 44.7476 107.159 44.2282C106.022 43.7088 105.031 42.9888 104.21 42.0837C103.389 41.1786 102.752 40.0986 102.32 38.8695C101.882 37.6327 101.659 36.2802 101.659 34.8505V34.704C101.659 33.3232 101.882 32.0092 102.32 30.7981C102.755 29.5922 103.381 28.5199 104.181 27.6122C104.976 26.7097 105.921 25.9872 106.991 25.4677C108.047 24.9535 109.251 24.6938 110.564 24.6938C112.443 24.6938 114.028 25.0563 115.271 25.7737C116.56 26.5194 117.834 27.5377 119.061 28.8028L119.535 29.2913L127.238 21.0656L126.839 20.6285C124.928 18.5329 122.686 16.8615 120.172 15.6633C117.645 14.4599 114.437 13.8479 110.634 13.8479C107.524 13.8479 104.634 14.4059 102.04 15.5038C99.4483 16.6044 97.1905 18.124 95.3289 20.0242C93.4673 21.9245 91.9862 24.1769 90.9324 26.7226C89.8761 29.2707 89.3401 32.0041 89.3401 34.848V34.9945C89.3401 37.841 89.8761 40.5615 90.9324 43.0865C91.9888 45.609 93.4673 47.8383 95.3315 49.7128C97.1957 51.5899 99.4535 53.0967 102.04 54.1947C104.632 55.2952 107.475 55.8532 110.486 55.8532C114.494 55.8532 117.813 55.1512 120.351 53.7678C122.852 52.4024 125.11 50.6257 127.057 48.4915L127.468 48.0415L120.058 40.5975L120.063 40.6Z" fill="white"/>
</svg>
