<svg width="166" height="82" viewBox="0 0 166 82" fill="none" xmlns="http://www.w3.org/2000/svg">
<path d="M30.5866 44.659C29.4551 43.5584 28.1476 42.5608 26.6821 41.6839C24.6522 40.4703 22.0552 39.8531 18.9637 39.8531C16.5377 39.8531 14.1815 40.3108 11.96 41.2134C9.73071 42.1185 7.73962 43.4839 6.04111 45.2709C4.35037 47.0503 2.97034 49.2539 1.94243 51.8227C0.911932 54.3915 0.388916 57.3819 0.388916 60.7066V60.8532C0.388916 64.1805 0.911932 67.1684 1.93984 69.7372C2.96775 72.3085 4.36073 74.5147 6.07736 76.2915C7.79658 78.076 9.80061 79.4388 12.0299 80.3465C14.2514 81.249 16.5843 81.7067 18.9612 81.7067C22.006 81.7067 24.5797 81.0767 26.6122 79.8374C28.088 78.9348 29.4189 77.8369 30.584 76.5589V80.9765H43.0458V26.4282H30.584V44.659H30.5866ZM30.004 56.4922C30.4882 57.7599 30.7342 59.1767 30.7342 60.7092V60.8558C30.7342 62.3883 30.4882 63.8051 30.004 65.0728C29.5199 66.3379 28.87 67.4333 28.0699 68.3255C27.2776 69.2075 26.3378 69.8966 25.2762 70.3697C24.2146 70.8428 23.0573 71.0845 21.8326 71.0845C20.6079 71.0845 19.4479 70.8454 18.3864 70.3697C17.3196 69.894 16.3668 69.2023 15.5486 68.3178C14.7278 67.4281 14.065 66.3353 13.5834 65.0728C13.0992 63.8051 12.8533 62.3883 12.8533 60.8558V60.7092C12.8533 59.133 13.0992 57.7033 13.5808 56.4588C14.0624 55.2194 14.7252 54.1369 15.5486 53.2446C16.3668 52.3575 17.3196 51.6684 18.3864 51.1927C19.4479 50.717 20.6079 50.4779 21.83 50.4779C23.0521 50.4779 24.212 50.7196 25.2736 51.1927C26.3378 51.6684 27.2776 52.355 28.0673 53.2369C28.87 54.1318 29.5199 55.2246 30.004 56.4897V56.4922Z" fill="white"/>
<path d="M72.1576 39.8557C70.6792 39.8557 69.3303 40.0383 68.147 40.3983C66.9663 40.7583 65.8763 41.252 64.9027 41.8665C63.9344 42.4785 63.0437 43.1882 62.2566 43.975C61.9174 44.3144 61.5886 44.6641 61.2701 45.0215V40.5834H48.8083V80.979H61.2701V58.5725C61.2701 56.1323 61.8423 54.2835 62.9712 53.0775C64.1027 51.869 65.6199 51.2802 67.6033 51.2802C69.5866 51.2802 71.0547 51.8638 72.1136 53.0621C73.1778 54.268 73.7163 56.122 73.7163 58.5699V80.9765H86.1781V55.0137C86.1781 50.3493 84.9482 46.6209 82.5222 43.9313C80.078 41.2237 76.5903 39.8506 72.1576 39.8506V39.8557Z" fill="white"/>
<path d="M120.452 66.6L119.991 67.0243C118.666 68.2483 117.312 69.2357 115.97 69.9582C114.678 70.6576 113.138 71.0099 111.393 71.0099C109.974 71.0099 108.679 70.7476 107.548 70.2282C106.411 69.7088 105.419 68.9888 104.599 68.0837C103.778 67.1786 103.141 66.0986 102.709 64.8695C102.271 63.6327 102.048 62.2802 102.048 60.8505V60.704C102.048 59.3232 102.271 58.0092 102.709 56.7981C103.144 55.5922 103.77 54.5199 104.57 53.6122C105.365 52.7097 106.31 51.9872 107.38 51.4677C108.436 50.9535 109.64 50.6938 110.953 50.6938C112.832 50.6938 114.417 51.0563 115.66 51.7737C116.949 52.5194 118.223 53.5377 119.45 54.8028L119.924 55.2913L127.627 47.0656L127.228 46.6285C125.317 44.5329 123.075 42.8615 120.561 41.6633C118.034 40.4599 114.826 39.8479 111.022 39.8479C107.913 39.8479 105.023 40.4059 102.429 41.5038C99.8372 42.6044 97.5794 44.124 95.7178 46.0242C93.8562 47.9245 92.3752 50.1769 91.3214 52.7226C90.265 55.2707 89.729 58.0041 89.729 60.848V60.9945C89.729 63.841 90.265 66.5615 91.3214 69.0865C92.3777 71.609 93.8562 73.8383 95.7204 75.7128C97.5846 77.5899 99.8424 79.0967 102.429 80.1947C105.021 81.2952 107.864 81.8532 110.875 81.8532C114.883 81.8532 118.202 81.1512 120.74 79.7678C123.241 78.4024 125.499 76.6257 127.446 74.4915L127.857 74.0415L120.447 66.5975L120.452 66.6Z" fill="white"/>
<path d="M138.266 0H111.007V27.071H138.266V0Z" fill="#00ABFF"/>
<path d="M138.266 0H152.673C159.767 0 165.528 5.72121 165.528 12.7667V27.0736H138.269V0H138.266Z" fill="#0C70F2"/>
<path d="M165.525 27.071H138.266V54.142H165.525V27.071Z" fill="#00D7EE"/>
</svg>
